<mxfile host="app.diagrams.net" modified="2021-01-09T10:29:41.207Z" agent="5.0 (Windows)" etag="coP0GS9wrlLLdBhqryS2" version="14.1.8" type="github">
  <diagram id="kKo6Jsh-xKSCXYv6kefE" name="Page-1">
    <mxGraphModel dx="1463" dy="862" grid="0" gridSize="10" guides="1" tooltips="1" connect="1" arrows="1" fold="1" page="0" pageScale="1" pageWidth="1200" pageHeight="1920" math="1" shadow="0">
      <root>
        <mxCell id="0" />
        <mxCell id="1" parent="0" />
        <mxCell id="M0Go_DO-DKuvmfMo6PQz-261" value="" style="rounded=0;whiteSpace=wrap;html=1;strokeColor=#000000;fillColor=#FFFFFF;dashed=1;" vertex="1" parent="1">
          <mxGeometry x="688.25" y="210" width="458.75" height="430" as="geometry" />
        </mxCell>
        <mxCell id="M0Go_DO-DKuvmfMo6PQz-2" value="" style="shape=cube;whiteSpace=wrap;html=1;boundedLbl=1;backgroundOutline=1;darkOpacity=0.05;darkOpacity2=0.1;size=10;fillColor=#99E1D9;" vertex="1" parent="1">
          <mxGeometry x="523.5" y="250" width="50" height="50" as="geometry" />
        </mxCell>
        <mxCell id="M0Go_DO-DKuvmfMo6PQz-3" value="" style="shape=cube;whiteSpace=wrap;html=1;boundedLbl=1;backgroundOutline=1;darkOpacity=0.05;darkOpacity2=0.1;size=10;fillColor=#7A89C2;" vertex="1" parent="1">
          <mxGeometry x="575" y="290" width="50" height="50" as="geometry" />
        </mxCell>
        <mxCell id="M0Go_DO-DKuvmfMo6PQz-4" value="&lt;div&gt;kernel&lt;/div&gt;&lt;div&gt;1&lt;br&gt;&lt;/div&gt;" style="shape=cube;whiteSpace=wrap;html=1;boundedLbl=1;backgroundOutline=1;darkOpacity=0.05;darkOpacity2=0.1;size=10;strokeColor=#d6b656;fillColor=#F7567C;" vertex="1" parent="1">
          <mxGeometry x="595" y="310" width="50" height="50" as="geometry" />
        </mxCell>
        <mxCell id="M0Go_DO-DKuvmfMo6PQz-5" value="2" style="text;html=1;strokeColor=none;fillColor=none;align=center;verticalAlign=middle;whiteSpace=wrap;rounded=0;" vertex="1" parent="1">
          <mxGeometry x="575" y="300" width="30" height="20" as="geometry" />
        </mxCell>
        <mxCell id="M0Go_DO-DKuvmfMo6PQz-6" value="n" style="text;html=1;strokeColor=none;fillColor=none;align=center;verticalAlign=middle;whiteSpace=wrap;rounded=0;" vertex="1" parent="1">
          <mxGeometry x="524.5" y="261.5" width="30" height="20" as="geometry" />
        </mxCell>
        <mxCell id="M0Go_DO-DKuvmfMo6PQz-9" value="kernel 1" style="rounded=0;whiteSpace=wrap;html=1;fillColor=#F7567C;" vertex="1" parent="1">
          <mxGeometry x="513" y="466.25" width="132" height="33" as="geometry" />
        </mxCell>
        <mxCell id="M0Go_DO-DKuvmfMo6PQz-26" value="" style="shape=cube;whiteSpace=wrap;html=1;boundedLbl=1;backgroundOutline=1;darkOpacity=0.05;darkOpacity2=0.1;fillColor=#FFFAE3;" vertex="1" parent="1">
          <mxGeometry x="710" y="250" width="140" height="140" as="geometry" />
        </mxCell>
        <mxCell id="M0Go_DO-DKuvmfMo6PQz-62" value="1" style="rounded=0;whiteSpace=wrap;html=1;fillColor=#FFFAE3;" vertex="1" parent="1">
          <mxGeometry x="730" y="270" width="30" height="30" as="geometry" />
        </mxCell>
        <mxCell id="M0Go_DO-DKuvmfMo6PQz-63" value="2" style="rounded=0;whiteSpace=wrap;html=1;fillColor=#FFFAE3;" vertex="1" parent="1">
          <mxGeometry x="760" y="270" width="30" height="30" as="geometry" />
        </mxCell>
        <mxCell id="M0Go_DO-DKuvmfMo6PQz-66" value="3" style="rounded=0;whiteSpace=wrap;html=1;fillColor=#FFFAE3;" vertex="1" parent="1">
          <mxGeometry x="790" y="270" width="30" height="30" as="geometry" />
        </mxCell>
        <mxCell id="M0Go_DO-DKuvmfMo6PQz-67" value="4" style="rounded=0;whiteSpace=wrap;html=1;fillColor=#FFFAE3;" vertex="1" parent="1">
          <mxGeometry x="820" y="270" width="30" height="30" as="geometry" />
        </mxCell>
        <mxCell id="M0Go_DO-DKuvmfMo6PQz-68" value="5" style="rounded=0;whiteSpace=wrap;html=1;fillColor=#FFFAE3;" vertex="1" parent="1">
          <mxGeometry x="730" y="300" width="30" height="30" as="geometry" />
        </mxCell>
        <mxCell id="M0Go_DO-DKuvmfMo6PQz-69" value="6" style="rounded=0;whiteSpace=wrap;html=1;fillColor=#FFFAE3;" vertex="1" parent="1">
          <mxGeometry x="760" y="300" width="30" height="30" as="geometry" />
        </mxCell>
        <mxCell id="M0Go_DO-DKuvmfMo6PQz-70" value="7" style="rounded=0;whiteSpace=wrap;html=1;fillColor=#FFFAE3;" vertex="1" parent="1">
          <mxGeometry x="790" y="300" width="30" height="30" as="geometry" />
        </mxCell>
        <mxCell id="M0Go_DO-DKuvmfMo6PQz-71" value="8" style="rounded=0;whiteSpace=wrap;html=1;fillColor=#FFFAE3;" vertex="1" parent="1">
          <mxGeometry x="820" y="300" width="30" height="30" as="geometry" />
        </mxCell>
        <mxCell id="M0Go_DO-DKuvmfMo6PQz-72" value="9" style="rounded=0;whiteSpace=wrap;html=1;fillColor=#FFFAE3;" vertex="1" parent="1">
          <mxGeometry x="730" y="330" width="30" height="30" as="geometry" />
        </mxCell>
        <mxCell id="M0Go_DO-DKuvmfMo6PQz-73" value="10" style="rounded=0;whiteSpace=wrap;html=1;fillColor=#FFFAE3;" vertex="1" parent="1">
          <mxGeometry x="760" y="330" width="30" height="30" as="geometry" />
        </mxCell>
        <mxCell id="M0Go_DO-DKuvmfMo6PQz-74" value="11" style="rounded=0;whiteSpace=wrap;html=1;fillColor=#FFFAE3;" vertex="1" parent="1">
          <mxGeometry x="790" y="330" width="30" height="30" as="geometry" />
        </mxCell>
        <mxCell id="M0Go_DO-DKuvmfMo6PQz-75" value="12" style="rounded=0;whiteSpace=wrap;html=1;fillColor=#FFFAE3;" vertex="1" parent="1">
          <mxGeometry x="820" y="330" width="30" height="30" as="geometry" />
        </mxCell>
        <mxCell id="M0Go_DO-DKuvmfMo6PQz-76" value="13" style="rounded=0;whiteSpace=wrap;html=1;fillColor=#FFFAE3;" vertex="1" parent="1">
          <mxGeometry x="730" y="360" width="30" height="30" as="geometry" />
        </mxCell>
        <mxCell id="M0Go_DO-DKuvmfMo6PQz-77" value="14" style="rounded=0;whiteSpace=wrap;html=1;fillColor=#FFFAE3;" vertex="1" parent="1">
          <mxGeometry x="760" y="360" width="30" height="30" as="geometry" />
        </mxCell>
        <mxCell id="M0Go_DO-DKuvmfMo6PQz-78" value="15" style="rounded=0;whiteSpace=wrap;html=1;fillColor=#FFFAE3;" vertex="1" parent="1">
          <mxGeometry x="790" y="360" width="30" height="30" as="geometry" />
        </mxCell>
        <mxCell id="M0Go_DO-DKuvmfMo6PQz-79" value="16" style="rounded=0;whiteSpace=wrap;html=1;fillColor=#FFFAE3;" vertex="1" parent="1">
          <mxGeometry x="820" y="360" width="30" height="30" as="geometry" />
        </mxCell>
        <mxCell id="M0Go_DO-DKuvmfMo6PQz-82" value="" style="endArrow=none;html=1;fillColor=#000000;exitX=0;exitY=0;exitDx=0;exitDy=0;entryX=1;entryY=0;entryDx=0;entryDy=0;strokeColor=#FF0000;strokeWidth=2;" edge="1" parent="1" source="M0Go_DO-DKuvmfMo6PQz-62" target="M0Go_DO-DKuvmfMo6PQz-63">
          <mxGeometry width="50" height="50" relative="1" as="geometry">
            <mxPoint x="770" y="400" as="sourcePoint" />
            <mxPoint x="820" y="350" as="targetPoint" />
          </mxGeometry>
        </mxCell>
        <mxCell id="M0Go_DO-DKuvmfMo6PQz-83" value="" style="endArrow=none;html=1;fillColor=#000000;exitX=0;exitY=0;exitDx=0;exitDy=0;entryX=0;entryY=1;entryDx=0;entryDy=0;strokeColor=#FF0000;strokeWidth=2;" edge="1" parent="1" target="M0Go_DO-DKuvmfMo6PQz-68">
          <mxGeometry width="50" height="50" relative="1" as="geometry">
            <mxPoint x="730" y="270" as="sourcePoint" />
            <mxPoint x="790" y="270" as="targetPoint" />
          </mxGeometry>
        </mxCell>
        <mxCell id="M0Go_DO-DKuvmfMo6PQz-84" value="" style="endArrow=none;html=1;fillColor=#000000;exitX=0;exitY=1;exitDx=0;exitDy=0;entryX=1;entryY=0;entryDx=0;entryDy=0;strokeColor=#FF0000;strokeWidth=2;" edge="1" parent="1" source="M0Go_DO-DKuvmfMo6PQz-70">
          <mxGeometry width="50" height="50" relative="1" as="geometry">
            <mxPoint x="730" y="270" as="sourcePoint" />
            <mxPoint x="790" y="270" as="targetPoint" />
          </mxGeometry>
        </mxCell>
        <mxCell id="M0Go_DO-DKuvmfMo6PQz-85" value="" style="endArrow=none;html=1;fillColor=#000000;exitX=0;exitY=1;exitDx=0;exitDy=0;strokeColor=#FF0000;strokeWidth=2;" edge="1" parent="1">
          <mxGeometry width="50" height="50" relative="1" as="geometry">
            <mxPoint x="790" y="330" as="sourcePoint" />
            <mxPoint x="730" y="330" as="targetPoint" />
          </mxGeometry>
        </mxCell>
        <mxCell id="M0Go_DO-DKuvmfMo6PQz-86" value="" style="endArrow=classic;html=1;strokeWidth=2;fillColor=#000000;strokeColor=#FFB278;" edge="1" parent="1">
          <mxGeometry width="50" height="50" relative="1" as="geometry">
            <mxPoint x="868" y="352" as="sourcePoint" />
            <mxPoint x="908" y="352" as="targetPoint" />
          </mxGeometry>
        </mxCell>
        <mxCell id="M0Go_DO-DKuvmfMo6PQz-118" value="" style="shape=cube;whiteSpace=wrap;html=1;boundedLbl=1;backgroundOutline=1;darkOpacity=0.05;darkOpacity2=0.1;fillColor=#FFFAE3;size=7;" vertex="1" parent="1">
          <mxGeometry x="920" y="224" width="69" height="68.5" as="geometry" />
        </mxCell>
        <mxCell id="M0Go_DO-DKuvmfMo6PQz-119" value="1" style="rounded=0;whiteSpace=wrap;html=1;fillColor=#FFFAE3;" vertex="1" parent="1">
          <mxGeometry x="928" y="231.5" width="30" height="30" as="geometry" />
        </mxCell>
        <mxCell id="M0Go_DO-DKuvmfMo6PQz-120" value="2" style="rounded=0;whiteSpace=wrap;html=1;fillColor=#FFFAE3;" vertex="1" parent="1">
          <mxGeometry x="958" y="231.5" width="30" height="30" as="geometry" />
        </mxCell>
        <mxCell id="M0Go_DO-DKuvmfMo6PQz-121" value="5" style="rounded=0;whiteSpace=wrap;html=1;fillColor=#FFFAE3;" vertex="1" parent="1">
          <mxGeometry x="928" y="261.5" width="30" height="30" as="geometry" />
        </mxCell>
        <mxCell id="M0Go_DO-DKuvmfMo6PQz-122" value="6" style="rounded=0;whiteSpace=wrap;html=1;fillColor=#FFFAE3;" vertex="1" parent="1">
          <mxGeometry x="958" y="261.5" width="30" height="30" as="geometry" />
        </mxCell>
        <mxCell id="M0Go_DO-DKuvmfMo6PQz-134" value="" style="shape=cube;whiteSpace=wrap;html=1;boundedLbl=1;backgroundOutline=1;darkOpacity=0.05;darkOpacity2=0.1;fillColor=#FFFAE3;size=7;" vertex="1" parent="1">
          <mxGeometry x="991" y="224" width="69" height="68.5" as="geometry" />
        </mxCell>
        <mxCell id="M0Go_DO-DKuvmfMo6PQz-135" value="2" style="rounded=0;whiteSpace=wrap;html=1;fillColor=#FFFAE3;" vertex="1" parent="1">
          <mxGeometry x="999" y="231.5" width="30" height="30" as="geometry" />
        </mxCell>
        <mxCell id="M0Go_DO-DKuvmfMo6PQz-136" value="3" style="rounded=0;whiteSpace=wrap;html=1;fillColor=#FFFAE3;" vertex="1" parent="1">
          <mxGeometry x="1029" y="231.5" width="30" height="30" as="geometry" />
        </mxCell>
        <mxCell id="M0Go_DO-DKuvmfMo6PQz-137" value="6" style="rounded=0;whiteSpace=wrap;html=1;fillColor=#FFFAE3;" vertex="1" parent="1">
          <mxGeometry x="999" y="261.5" width="30" height="30" as="geometry" />
        </mxCell>
        <mxCell id="M0Go_DO-DKuvmfMo6PQz-138" value="7" style="rounded=0;whiteSpace=wrap;html=1;fillColor=#FFFAE3;" vertex="1" parent="1">
          <mxGeometry x="1029" y="261.5" width="30" height="30" as="geometry" />
        </mxCell>
        <mxCell id="M0Go_DO-DKuvmfMo6PQz-139" value="" style="shape=cube;whiteSpace=wrap;html=1;boundedLbl=1;backgroundOutline=1;darkOpacity=0.05;darkOpacity2=0.1;fillColor=#FFFAE3;size=7;" vertex="1" parent="1">
          <mxGeometry x="1063" y="224" width="69" height="68.5" as="geometry" />
        </mxCell>
        <mxCell id="M0Go_DO-DKuvmfMo6PQz-140" value="3" style="rounded=0;whiteSpace=wrap;html=1;fillColor=#FFFAE3;" vertex="1" parent="1">
          <mxGeometry x="1071" y="231.5" width="30" height="30" as="geometry" />
        </mxCell>
        <mxCell id="M0Go_DO-DKuvmfMo6PQz-141" value="4" style="rounded=0;whiteSpace=wrap;html=1;fillColor=#FFFAE3;" vertex="1" parent="1">
          <mxGeometry x="1101" y="231.5" width="30" height="30" as="geometry" />
        </mxCell>
        <mxCell id="M0Go_DO-DKuvmfMo6PQz-142" value="7" style="rounded=0;whiteSpace=wrap;html=1;fillColor=#FFFAE3;" vertex="1" parent="1">
          <mxGeometry x="1071" y="261.5" width="30" height="30" as="geometry" />
        </mxCell>
        <mxCell id="M0Go_DO-DKuvmfMo6PQz-143" value="8" style="rounded=0;whiteSpace=wrap;html=1;fillColor=#FFFAE3;" vertex="1" parent="1">
          <mxGeometry x="1101" y="261.5" width="30" height="30" as="geometry" />
        </mxCell>
        <mxCell id="M0Go_DO-DKuvmfMo6PQz-144" value="" style="shape=cube;whiteSpace=wrap;html=1;boundedLbl=1;backgroundOutline=1;darkOpacity=0.05;darkOpacity2=0.1;fillColor=#FFFAE3;size=7;" vertex="1" parent="1">
          <mxGeometry x="920" y="293" width="69" height="68.5" as="geometry" />
        </mxCell>
        <mxCell id="M0Go_DO-DKuvmfMo6PQz-145" value="5" style="rounded=0;whiteSpace=wrap;html=1;fillColor=#FFFAE3;" vertex="1" parent="1">
          <mxGeometry x="928" y="300.5" width="30" height="30" as="geometry" />
        </mxCell>
        <mxCell id="M0Go_DO-DKuvmfMo6PQz-146" value="6" style="rounded=0;whiteSpace=wrap;html=1;fillColor=#FFFAE3;" vertex="1" parent="1">
          <mxGeometry x="958" y="300.5" width="30" height="30" as="geometry" />
        </mxCell>
        <mxCell id="M0Go_DO-DKuvmfMo6PQz-147" value="9" style="rounded=0;whiteSpace=wrap;html=1;fillColor=#FFFAE3;" vertex="1" parent="1">
          <mxGeometry x="928" y="330.5" width="30" height="30" as="geometry" />
        </mxCell>
        <mxCell id="M0Go_DO-DKuvmfMo6PQz-148" value="10" style="rounded=0;whiteSpace=wrap;html=1;fillColor=#FFFAE3;" vertex="1" parent="1">
          <mxGeometry x="958" y="330.5" width="30" height="30" as="geometry" />
        </mxCell>
        <mxCell id="M0Go_DO-DKuvmfMo6PQz-149" value="" style="shape=cube;whiteSpace=wrap;html=1;boundedLbl=1;backgroundOutline=1;darkOpacity=0.05;darkOpacity2=0.1;fillColor=#FFFAE3;size=7;" vertex="1" parent="1">
          <mxGeometry x="991" y="293" width="69" height="68.5" as="geometry" />
        </mxCell>
        <mxCell id="M0Go_DO-DKuvmfMo6PQz-150" value="6" style="rounded=0;whiteSpace=wrap;html=1;fillColor=#FFFAE3;" vertex="1" parent="1">
          <mxGeometry x="999" y="300.5" width="30" height="30" as="geometry" />
        </mxCell>
        <mxCell id="M0Go_DO-DKuvmfMo6PQz-151" value="7" style="rounded=0;whiteSpace=wrap;html=1;fillColor=#FFFAE3;" vertex="1" parent="1">
          <mxGeometry x="1029" y="300.5" width="30" height="30" as="geometry" />
        </mxCell>
        <mxCell id="M0Go_DO-DKuvmfMo6PQz-152" value="10" style="rounded=0;whiteSpace=wrap;html=1;fillColor=#FFFAE3;" vertex="1" parent="1">
          <mxGeometry x="999" y="330.5" width="30" height="30" as="geometry" />
        </mxCell>
        <mxCell id="M0Go_DO-DKuvmfMo6PQz-153" value="11" style="rounded=0;whiteSpace=wrap;html=1;fillColor=#FFFAE3;" vertex="1" parent="1">
          <mxGeometry x="1029" y="330.5" width="30" height="30" as="geometry" />
        </mxCell>
        <mxCell id="M0Go_DO-DKuvmfMo6PQz-154" value="" style="shape=cube;whiteSpace=wrap;html=1;boundedLbl=1;backgroundOutline=1;darkOpacity=0.05;darkOpacity2=0.1;fillColor=#FFFAE3;size=7;" vertex="1" parent="1">
          <mxGeometry x="1063" y="293" width="69" height="68.5" as="geometry" />
        </mxCell>
        <mxCell id="M0Go_DO-DKuvmfMo6PQz-155" value="7" style="rounded=0;whiteSpace=wrap;html=1;fillColor=#FFFAE3;" vertex="1" parent="1">
          <mxGeometry x="1071" y="300.5" width="30" height="30" as="geometry" />
        </mxCell>
        <mxCell id="M0Go_DO-DKuvmfMo6PQz-156" value="8" style="rounded=0;whiteSpace=wrap;html=1;fillColor=#FFFAE3;" vertex="1" parent="1">
          <mxGeometry x="1101" y="300.5" width="30" height="30" as="geometry" />
        </mxCell>
        <mxCell id="M0Go_DO-DKuvmfMo6PQz-157" value="11" style="rounded=0;whiteSpace=wrap;html=1;fillColor=#FFFAE3;" vertex="1" parent="1">
          <mxGeometry x="1071" y="330.5" width="30" height="30" as="geometry" />
        </mxCell>
        <mxCell id="M0Go_DO-DKuvmfMo6PQz-158" value="12" style="rounded=0;whiteSpace=wrap;html=1;fillColor=#FFFAE3;" vertex="1" parent="1">
          <mxGeometry x="1101" y="330.5" width="30" height="30" as="geometry" />
        </mxCell>
        <mxCell id="M0Go_DO-DKuvmfMo6PQz-159" value="" style="shape=cube;whiteSpace=wrap;html=1;boundedLbl=1;backgroundOutline=1;darkOpacity=0.05;darkOpacity2=0.1;fillColor=#FFFAE3;size=7;" vertex="1" parent="1">
          <mxGeometry x="920" y="361.5" width="69" height="68.5" as="geometry" />
        </mxCell>
        <mxCell id="M0Go_DO-DKuvmfMo6PQz-160" value="9" style="rounded=0;whiteSpace=wrap;html=1;fillColor=#FFFAE3;" vertex="1" parent="1">
          <mxGeometry x="928" y="369" width="30" height="30" as="geometry" />
        </mxCell>
        <mxCell id="M0Go_DO-DKuvmfMo6PQz-161" value="10" style="rounded=0;whiteSpace=wrap;html=1;fillColor=#FFFAE3;" vertex="1" parent="1">
          <mxGeometry x="958" y="369" width="30" height="30" as="geometry" />
        </mxCell>
        <mxCell id="M0Go_DO-DKuvmfMo6PQz-162" value="13" style="rounded=0;whiteSpace=wrap;html=1;fillColor=#FFFAE3;" vertex="1" parent="1">
          <mxGeometry x="928" y="399" width="30" height="30" as="geometry" />
        </mxCell>
        <mxCell id="M0Go_DO-DKuvmfMo6PQz-163" value="14" style="rounded=0;whiteSpace=wrap;html=1;fillColor=#FFFAE3;" vertex="1" parent="1">
          <mxGeometry x="958" y="399" width="30" height="30" as="geometry" />
        </mxCell>
        <mxCell id="M0Go_DO-DKuvmfMo6PQz-164" value="" style="shape=cube;whiteSpace=wrap;html=1;boundedLbl=1;backgroundOutline=1;darkOpacity=0.05;darkOpacity2=0.1;fillColor=#FFFAE3;size=7;" vertex="1" parent="1">
          <mxGeometry x="991" y="361.5" width="69" height="68.5" as="geometry" />
        </mxCell>
        <mxCell id="M0Go_DO-DKuvmfMo6PQz-165" value="10" style="rounded=0;whiteSpace=wrap;html=1;fillColor=#FFFAE3;" vertex="1" parent="1">
          <mxGeometry x="999" y="369" width="30" height="30" as="geometry" />
        </mxCell>
        <mxCell id="M0Go_DO-DKuvmfMo6PQz-166" value="11" style="rounded=0;whiteSpace=wrap;html=1;fillColor=#FFFAE3;" vertex="1" parent="1">
          <mxGeometry x="1029" y="369" width="30" height="30" as="geometry" />
        </mxCell>
        <mxCell id="M0Go_DO-DKuvmfMo6PQz-167" value="14" style="rounded=0;whiteSpace=wrap;html=1;fillColor=#FFFAE3;" vertex="1" parent="1">
          <mxGeometry x="999" y="399" width="30" height="30" as="geometry" />
        </mxCell>
        <mxCell id="M0Go_DO-DKuvmfMo6PQz-168" value="15" style="rounded=0;whiteSpace=wrap;html=1;fillColor=#FFFAE3;" vertex="1" parent="1">
          <mxGeometry x="1029" y="399" width="30" height="30" as="geometry" />
        </mxCell>
        <mxCell id="M0Go_DO-DKuvmfMo6PQz-169" value="" style="shape=cube;whiteSpace=wrap;html=1;boundedLbl=1;backgroundOutline=1;darkOpacity=0.05;darkOpacity2=0.1;fillColor=#FFFAE3;size=7;" vertex="1" parent="1">
          <mxGeometry x="1063" y="361.5" width="69" height="68.5" as="geometry" />
        </mxCell>
        <mxCell id="M0Go_DO-DKuvmfMo6PQz-170" value="11" style="rounded=0;whiteSpace=wrap;html=1;fillColor=#FFFAE3;" vertex="1" parent="1">
          <mxGeometry x="1071" y="369" width="30" height="30" as="geometry" />
        </mxCell>
        <mxCell id="M0Go_DO-DKuvmfMo6PQz-171" value="12" style="rounded=0;whiteSpace=wrap;html=1;fillColor=#FFFAE3;" vertex="1" parent="1">
          <mxGeometry x="1101" y="369" width="30" height="30" as="geometry" />
        </mxCell>
        <mxCell id="M0Go_DO-DKuvmfMo6PQz-172" value="15" style="rounded=0;whiteSpace=wrap;html=1;fillColor=#FFFAE3;" vertex="1" parent="1">
          <mxGeometry x="1071" y="399" width="30" height="30" as="geometry" />
        </mxCell>
        <mxCell id="M0Go_DO-DKuvmfMo6PQz-173" value="16" style="rounded=0;whiteSpace=wrap;html=1;fillColor=#FFFAE3;" vertex="1" parent="1">
          <mxGeometry x="1101" y="399" width="30" height="30" as="geometry" />
        </mxCell>
        <mxCell id="M0Go_DO-DKuvmfMo6PQz-178" value="1" style="rounded=0;whiteSpace=wrap;html=1;strokeColor=#000000;fillColor=#FFFAE3;" vertex="1" parent="1">
          <mxGeometry x="730" y="458" width="40" height="40" as="geometry" />
        </mxCell>
        <mxCell id="M0Go_DO-DKuvmfMo6PQz-179" value="2" style="rounded=0;whiteSpace=wrap;html=1;strokeColor=#000000;fillColor=#FFFAE3;" vertex="1" parent="1">
          <mxGeometry x="730" y="498" width="40" height="40" as="geometry" />
        </mxCell>
        <mxCell id="M0Go_DO-DKuvmfMo6PQz-180" value="5" style="rounded=0;whiteSpace=wrap;html=1;strokeColor=#000000;fillColor=#FFFAE3;" vertex="1" parent="1">
          <mxGeometry x="730" y="538" width="40" height="40" as="geometry" />
        </mxCell>
        <mxCell id="M0Go_DO-DKuvmfMo6PQz-183" value="6" style="rounded=0;whiteSpace=wrap;html=1;strokeColor=#000000;fillColor=#FFFAE3;" vertex="1" parent="1">
          <mxGeometry x="730" y="578" width="40" height="40" as="geometry" />
        </mxCell>
        <mxCell id="M0Go_DO-DKuvmfMo6PQz-184" value="2" style="rounded=0;whiteSpace=wrap;html=1;strokeColor=#000000;fillColor=#FFFAE3;" vertex="1" parent="1">
          <mxGeometry x="775" y="458" width="40" height="40" as="geometry" />
        </mxCell>
        <mxCell id="M0Go_DO-DKuvmfMo6PQz-185" value="3" style="rounded=0;whiteSpace=wrap;html=1;strokeColor=#000000;fillColor=#FFFAE3;" vertex="1" parent="1">
          <mxGeometry x="775" y="498" width="40" height="40" as="geometry" />
        </mxCell>
        <mxCell id="M0Go_DO-DKuvmfMo6PQz-186" value="6" style="rounded=0;whiteSpace=wrap;html=1;strokeColor=#000000;fillColor=#FFFAE3;" vertex="1" parent="1">
          <mxGeometry x="775" y="538" width="40" height="40" as="geometry" />
        </mxCell>
        <mxCell id="M0Go_DO-DKuvmfMo6PQz-187" value="7" style="rounded=0;whiteSpace=wrap;html=1;strokeColor=#000000;fillColor=#FFFAE3;" vertex="1" parent="1">
          <mxGeometry x="775" y="578" width="40" height="40" as="geometry" />
        </mxCell>
        <mxCell id="M0Go_DO-DKuvmfMo6PQz-188" value="3" style="rounded=0;whiteSpace=wrap;html=1;strokeColor=#000000;fillColor=#FFFAE3;" vertex="1" parent="1">
          <mxGeometry x="821" y="458" width="40" height="40" as="geometry" />
        </mxCell>
        <mxCell id="M0Go_DO-DKuvmfMo6PQz-189" value="4" style="rounded=0;whiteSpace=wrap;html=1;strokeColor=#000000;fillColor=#FFFAE3;" vertex="1" parent="1">
          <mxGeometry x="821" y="498" width="40" height="40" as="geometry" />
        </mxCell>
        <mxCell id="M0Go_DO-DKuvmfMo6PQz-190" value="7" style="rounded=0;whiteSpace=wrap;html=1;strokeColor=#000000;fillColor=#FFFAE3;" vertex="1" parent="1">
          <mxGeometry x="821" y="538" width="40" height="40" as="geometry" />
        </mxCell>
        <mxCell id="M0Go_DO-DKuvmfMo6PQz-191" value="8" style="rounded=0;whiteSpace=wrap;html=1;strokeColor=#000000;fillColor=#FFFAE3;" vertex="1" parent="1">
          <mxGeometry x="821" y="578" width="40" height="40" as="geometry" />
        </mxCell>
        <mxCell id="M0Go_DO-DKuvmfMo6PQz-245" value="11" style="rounded=0;whiteSpace=wrap;html=1;strokeColor=#000000;fillColor=#FFFAE3;" vertex="1" parent="1">
          <mxGeometry x="934" y="458" width="40" height="40" as="geometry" />
        </mxCell>
        <mxCell id="M0Go_DO-DKuvmfMo6PQz-246" value="12" style="rounded=0;whiteSpace=wrap;html=1;strokeColor=#000000;fillColor=#FFFAE3;" vertex="1" parent="1">
          <mxGeometry x="934" y="498" width="40" height="40" as="geometry" />
        </mxCell>
        <mxCell id="M0Go_DO-DKuvmfMo6PQz-247" value="15" style="rounded=0;whiteSpace=wrap;html=1;strokeColor=#000000;fillColor=#FFFAE3;" vertex="1" parent="1">
          <mxGeometry x="934" y="538" width="40" height="40" as="geometry" />
        </mxCell>
        <mxCell id="M0Go_DO-DKuvmfMo6PQz-248" value="16" style="rounded=0;whiteSpace=wrap;html=1;strokeColor=#000000;fillColor=#FFFAE3;" vertex="1" parent="1">
          <mxGeometry x="934" y="578" width="40" height="40" as="geometry" />
        </mxCell>
        <mxCell id="M0Go_DO-DKuvmfMo6PQz-255" value="&lt;font style=&quot;font-size: 40px&quot;&gt;...&lt;/font&gt;" style="text;html=1;align=center;verticalAlign=middle;resizable=0;points=[];autosize=1;" vertex="1" parent="1">
          <mxGeometry x="879" y="523" width="43" height="28" as="geometry" />
        </mxCell>
        <mxCell id="M0Go_DO-DKuvmfMo6PQz-256" value="kernel 2" style="rounded=0;whiteSpace=wrap;html=1;fillColor=#7A89C2;" vertex="1" parent="1">
          <mxGeometry x="513" y="506.25" width="132" height="33" as="geometry" />
        </mxCell>
        <mxCell id="M0Go_DO-DKuvmfMo6PQz-257" value="kernel n" style="rounded=0;whiteSpace=wrap;html=1;fillColor=#99E1D9;" vertex="1" parent="1">
          <mxGeometry x="512" y="574.75" width="132" height="33" as="geometry" />
        </mxCell>
        <mxCell id="M0Go_DO-DKuvmfMo6PQz-258" value="" style="endArrow=classic;html=1;strokeWidth=2;fillColor=#000000;strokeColor=#FFB278;" edge="1" parent="1">
          <mxGeometry width="50" height="50" relative="1" as="geometry">
            <mxPoint x="575" y="380" as="sourcePoint" />
            <mxPoint x="575" y="440" as="targetPoint" />
          </mxGeometry>
        </mxCell>
        <mxCell id="M0Go_DO-DKuvmfMo6PQz-260" value="" style="curved=1;endArrow=classic;html=1;strokeWidth=2;fillColor=#000000;strokeColor=#FFB278;" edge="1" parent="1">
          <mxGeometry width="50" height="50" relative="1" as="geometry">
            <mxPoint x="1120" y="434" as="sourcePoint" />
            <mxPoint x="1046" y="554.5" as="targetPoint" />
            <Array as="points">
              <mxPoint x="1126" y="443.5" />
              <mxPoint x="1116" y="485.5" />
              <mxPoint x="1086" y="543.5" />
            </Array>
          </mxGeometry>
        </mxCell>
        <mxCell id="M0Go_DO-DKuvmfMo6PQz-267" value="" style="rounded=0;whiteSpace=wrap;html=1;dashed=1;fillColor=#FFFFFF;strokeColor=none;" vertex="1" parent="1">
          <mxGeometry x="666.5" y="513.5" width="53.5" height="36.5" as="geometry" />
        </mxCell>
        <mxCell id="M0Go_DO-DKuvmfMo6PQz-263" value="&lt;font style=&quot;font-size: 40px&quot;&gt;$$\times$$&lt;/font&gt;" style="text;html=1;align=center;verticalAlign=middle;resizable=0;points=[];autosize=1;" vertex="1" parent="1">
          <mxGeometry x="585" y="514.5" width="210" height="30" as="geometry" />
        </mxCell>
        <mxCell id="M0Go_DO-DKuvmfMo6PQz-268" value="" style="endArrow=none;dashed=1;html=1;dashPattern=1 3;strokeWidth=2;fillColor=#000000;entryX=1;entryY=0.75;entryDx=0;entryDy=0;" edge="1" parent="1" target="M0Go_DO-DKuvmfMo6PQz-6">
          <mxGeometry width="50" height="50" relative="1" as="geometry">
            <mxPoint x="570" y="290" as="sourcePoint" />
            <mxPoint x="720" y="460" as="targetPoint" />
          </mxGeometry>
        </mxCell>
        <mxCell id="M0Go_DO-DKuvmfMo6PQz-269" value="" style="endArrow=none;dashed=1;html=1;dashPattern=1 3;strokeWidth=2;fillColor=#000000;" edge="1" parent="1">
          <mxGeometry width="50" height="50" relative="1" as="geometry">
            <mxPoint x="577.66" y="544.75" as="sourcePoint" />
            <mxPoint x="577.66" y="574.75" as="targetPoint" />
          </mxGeometry>
        </mxCell>
        <mxCell id="M0Go_DO-DKuvmfMo6PQz-270" value="" style="shape=curlyBracket;whiteSpace=wrap;html=1;rounded=1;strokeColor=#000000;fillColor=#FFFFFF;rotation=-90;" vertex="1" parent="1">
          <mxGeometry x="720" y="430" width="45" height="470" as="geometry" />
        </mxCell>
        <mxCell id="M0Go_DO-DKuvmfMo6PQz-271" value="&lt;font style=&quot;font-size: 30px&quot;&gt;matrix multiplication&lt;br&gt;&lt;/font&gt;" style="text;html=1;align=center;verticalAlign=middle;resizable=0;points=[];autosize=1;" vertex="1" parent="1">
          <mxGeometry x="605" y="690" width="280" height="30" as="geometry" />
        </mxCell>
        <mxCell id="M0Go_DO-DKuvmfMo6PQz-276" value="" style="shape=cube;whiteSpace=wrap;html=1;boundedLbl=1;backgroundOutline=1;darkOpacity=0.05;darkOpacity2=0.1;fillColor=#F8CECC;" vertex="1" parent="1">
          <mxGeometry x="260" y="255" width="110" height="110" as="geometry" />
        </mxCell>
        <mxCell id="M0Go_DO-DKuvmfMo6PQz-277" value="1" style="rounded=0;whiteSpace=wrap;html=1;fillColor=#F8CECC;" vertex="1" parent="1">
          <mxGeometry x="280" y="275" width="30" height="30" as="geometry" />
        </mxCell>
        <mxCell id="M0Go_DO-DKuvmfMo6PQz-278" value="2" style="rounded=0;whiteSpace=wrap;html=1;fillColor=#F8CECC;" vertex="1" parent="1">
          <mxGeometry x="310" y="275" width="30" height="30" as="geometry" />
        </mxCell>
        <mxCell id="M0Go_DO-DKuvmfMo6PQz-279" value="3" style="rounded=0;whiteSpace=wrap;html=1;fillColor=#F8CECC;" vertex="1" parent="1">
          <mxGeometry x="340" y="275" width="30" height="30" as="geometry" />
        </mxCell>
        <mxCell id="M0Go_DO-DKuvmfMo6PQz-281" value="4" style="rounded=0;whiteSpace=wrap;html=1;fillColor=#F8CECC;" vertex="1" parent="1">
          <mxGeometry x="280" y="305" width="30" height="30" as="geometry" />
        </mxCell>
        <mxCell id="M0Go_DO-DKuvmfMo6PQz-282" value="5" style="rounded=0;whiteSpace=wrap;html=1;fillColor=#F8CECC;" vertex="1" parent="1">
          <mxGeometry x="310" y="305" width="30" height="30" as="geometry" />
        </mxCell>
        <mxCell id="M0Go_DO-DKuvmfMo6PQz-283" value="6" style="rounded=0;whiteSpace=wrap;html=1;fillColor=#F8CECC;" vertex="1" parent="1">
          <mxGeometry x="340" y="305" width="30" height="30" as="geometry" />
        </mxCell>
        <mxCell id="M0Go_DO-DKuvmfMo6PQz-285" value="7" style="rounded=0;whiteSpace=wrap;html=1;fillColor=#F8CECC;" vertex="1" parent="1">
          <mxGeometry x="280" y="335" width="30" height="30" as="geometry" />
        </mxCell>
        <mxCell id="M0Go_DO-DKuvmfMo6PQz-286" value="8" style="rounded=0;whiteSpace=wrap;html=1;fillColor=#F8CECC;" vertex="1" parent="1">
          <mxGeometry x="310" y="335" width="30" height="30" as="geometry" />
        </mxCell>
        <mxCell id="M0Go_DO-DKuvmfMo6PQz-287" value="9" style="rounded=0;whiteSpace=wrap;html=1;fillColor=#F8CECC;" vertex="1" parent="1">
          <mxGeometry x="340" y="335" width="30" height="30" as="geometry" />
        </mxCell>
        <mxCell id="M0Go_DO-DKuvmfMo6PQz-297" value="1" style="rounded=0;whiteSpace=wrap;html=1;strokeColor=#000000;fillColor=#F8CECC;" vertex="1" parent="1">
          <mxGeometry x="173" y="466.25" width="30" height="30" as="geometry" />
        </mxCell>
        <mxCell id="M0Go_DO-DKuvmfMo6PQz-299" value="2" style="rounded=0;whiteSpace=wrap;html=1;strokeColor=#000000;fillColor=#F8CECC;" vertex="1" parent="1">
          <mxGeometry x="203" y="466.25" width="30" height="30" as="geometry" />
        </mxCell>
        <mxCell id="M0Go_DO-DKuvmfMo6PQz-300" value="3" style="rounded=0;whiteSpace=wrap;html=1;strokeColor=#000000;fillColor=#F8CECC;" vertex="1" parent="1">
          <mxGeometry x="233" y="466.25" width="30" height="30" as="geometry" />
        </mxCell>
        <mxCell id="M0Go_DO-DKuvmfMo6PQz-307" value="4" style="rounded=0;whiteSpace=wrap;html=1;strokeColor=#000000;fillColor=#F8CECC;" vertex="1" parent="1">
          <mxGeometry x="263" y="466.25" width="30" height="30" as="geometry" />
        </mxCell>
        <mxCell id="M0Go_DO-DKuvmfMo6PQz-308" value="5" style="rounded=0;whiteSpace=wrap;html=1;strokeColor=#000000;fillColor=#F8CECC;" vertex="1" parent="1">
          <mxGeometry x="293" y="466.25" width="30" height="30" as="geometry" />
        </mxCell>
        <mxCell id="M0Go_DO-DKuvmfMo6PQz-309" value="6" style="rounded=0;whiteSpace=wrap;html=1;strokeColor=#000000;fillColor=#F8CECC;" vertex="1" parent="1">
          <mxGeometry x="323" y="466.25" width="30" height="30" as="geometry" />
        </mxCell>
        <mxCell id="M0Go_DO-DKuvmfMo6PQz-313" value="7" style="rounded=0;whiteSpace=wrap;html=1;strokeColor=#000000;fillColor=#F8CECC;" vertex="1" parent="1">
          <mxGeometry x="353" y="466.25" width="30" height="30" as="geometry" />
        </mxCell>
        <mxCell id="M0Go_DO-DKuvmfMo6PQz-314" value="7" style="rounded=0;whiteSpace=wrap;html=1;strokeColor=#000000;fillColor=#F8CECC;" vertex="1" parent="1">
          <mxGeometry x="383" y="466.25" width="30" height="30" as="geometry" />
        </mxCell>
        <mxCell id="M0Go_DO-DKuvmfMo6PQz-315" value="9" style="rounded=0;whiteSpace=wrap;html=1;strokeColor=#000000;fillColor=#F8CECC;" vertex="1" parent="1">
          <mxGeometry x="413" y="466.25" width="30" height="30" as="geometry" />
        </mxCell>
        <mxCell id="M0Go_DO-DKuvmfMo6PQz-316" value="1" style="rounded=0;whiteSpace=wrap;html=1;strokeColor=#000000;fillColor=#F8CECC;" vertex="1" parent="1">
          <mxGeometry x="173" y="502.5" width="30" height="30" as="geometry" />
        </mxCell>
        <mxCell id="M0Go_DO-DKuvmfMo6PQz-317" value="2" style="rounded=0;whiteSpace=wrap;html=1;strokeColor=#000000;fillColor=#F8CECC;" vertex="1" parent="1">
          <mxGeometry x="203" y="502.5" width="30" height="30" as="geometry" />
        </mxCell>
        <mxCell id="M0Go_DO-DKuvmfMo6PQz-318" value="3" style="rounded=0;whiteSpace=wrap;html=1;strokeColor=#000000;fillColor=#F8CECC;" vertex="1" parent="1">
          <mxGeometry x="233" y="502.5" width="30" height="30" as="geometry" />
        </mxCell>
        <mxCell id="M0Go_DO-DKuvmfMo6PQz-319" value="4" style="rounded=0;whiteSpace=wrap;html=1;strokeColor=#000000;fillColor=#F8CECC;" vertex="1" parent="1">
          <mxGeometry x="263" y="502.5" width="30" height="30" as="geometry" />
        </mxCell>
        <mxCell id="M0Go_DO-DKuvmfMo6PQz-320" value="5" style="rounded=0;whiteSpace=wrap;html=1;strokeColor=#000000;fillColor=#F8CECC;" vertex="1" parent="1">
          <mxGeometry x="293" y="502.5" width="30" height="30" as="geometry" />
        </mxCell>
        <mxCell id="M0Go_DO-DKuvmfMo6PQz-321" value="6" style="rounded=0;whiteSpace=wrap;html=1;strokeColor=#000000;fillColor=#F8CECC;" vertex="1" parent="1">
          <mxGeometry x="323" y="502.5" width="30" height="30" as="geometry" />
        </mxCell>
        <mxCell id="M0Go_DO-DKuvmfMo6PQz-322" value="7" style="rounded=0;whiteSpace=wrap;html=1;strokeColor=#000000;fillColor=#F8CECC;" vertex="1" parent="1">
          <mxGeometry x="353" y="502.5" width="30" height="30" as="geometry" />
        </mxCell>
        <mxCell id="M0Go_DO-DKuvmfMo6PQz-323" value="7" style="rounded=0;whiteSpace=wrap;html=1;strokeColor=#000000;fillColor=#F8CECC;" vertex="1" parent="1">
          <mxGeometry x="383" y="502.5" width="30" height="30" as="geometry" />
        </mxCell>
        <mxCell id="M0Go_DO-DKuvmfMo6PQz-324" value="9" style="rounded=0;whiteSpace=wrap;html=1;strokeColor=#000000;fillColor=#F8CECC;" vertex="1" parent="1">
          <mxGeometry x="413" y="502.5" width="30" height="30" as="geometry" />
        </mxCell>
        <mxCell id="M0Go_DO-DKuvmfMo6PQz-325" value="1" style="rounded=0;whiteSpace=wrap;html=1;strokeColor=#000000;fillColor=#F8CECC;" vertex="1" parent="1">
          <mxGeometry x="173" y="575.25" width="30" height="30" as="geometry" />
        </mxCell>
        <mxCell id="M0Go_DO-DKuvmfMo6PQz-326" value="2" style="rounded=0;whiteSpace=wrap;html=1;strokeColor=#000000;fillColor=#F8CECC;" vertex="1" parent="1">
          <mxGeometry x="203" y="575.25" width="30" height="30" as="geometry" />
        </mxCell>
        <mxCell id="M0Go_DO-DKuvmfMo6PQz-327" value="3" style="rounded=0;whiteSpace=wrap;html=1;strokeColor=#000000;fillColor=#F8CECC;" vertex="1" parent="1">
          <mxGeometry x="233" y="575.25" width="30" height="30" as="geometry" />
        </mxCell>
        <mxCell id="M0Go_DO-DKuvmfMo6PQz-328" value="4" style="rounded=0;whiteSpace=wrap;html=1;strokeColor=#000000;fillColor=#F8CECC;" vertex="1" parent="1">
          <mxGeometry x="263" y="575.25" width="30" height="30" as="geometry" />
        </mxCell>
        <mxCell id="M0Go_DO-DKuvmfMo6PQz-329" value="5" style="rounded=0;whiteSpace=wrap;html=1;strokeColor=#000000;fillColor=#F8CECC;" vertex="1" parent="1">
          <mxGeometry x="293" y="575.25" width="30" height="30" as="geometry" />
        </mxCell>
        <mxCell id="M0Go_DO-DKuvmfMo6PQz-330" value="6" style="rounded=0;whiteSpace=wrap;html=1;strokeColor=#000000;fillColor=#F8CECC;" vertex="1" parent="1">
          <mxGeometry x="323" y="575.25" width="30" height="30" as="geometry" />
        </mxCell>
        <mxCell id="M0Go_DO-DKuvmfMo6PQz-331" value="7" style="rounded=0;whiteSpace=wrap;html=1;strokeColor=#000000;fillColor=#F8CECC;" vertex="1" parent="1">
          <mxGeometry x="353" y="575.25" width="30" height="30" as="geometry" />
        </mxCell>
        <mxCell id="M0Go_DO-DKuvmfMo6PQz-332" value="7" style="rounded=0;whiteSpace=wrap;html=1;strokeColor=#000000;fillColor=#F8CECC;" vertex="1" parent="1">
          <mxGeometry x="383" y="575.25" width="30" height="30" as="geometry" />
        </mxCell>
        <mxCell id="M0Go_DO-DKuvmfMo6PQz-333" value="9" style="rounded=0;whiteSpace=wrap;html=1;strokeColor=#000000;fillColor=#F8CECC;" vertex="1" parent="1">
          <mxGeometry x="413" y="575.25" width="30" height="30" as="geometry" />
        </mxCell>
        <mxCell id="M0Go_DO-DKuvmfMo6PQz-334" value="" style="endArrow=none;dashed=1;html=1;dashPattern=1 3;strokeWidth=2;fillColor=#000000;" edge="1" parent="1">
          <mxGeometry width="50" height="50" relative="1" as="geometry">
            <mxPoint x="307.7099999999998" y="537.2499999999999" as="sourcePoint" />
            <mxPoint x="307.7099999999998" y="567.2499999999999" as="targetPoint" />
          </mxGeometry>
        </mxCell>
        <mxCell id="M0Go_DO-DKuvmfMo6PQz-335" value="&lt;font style=&quot;font-size: 40px&quot;&gt;=&lt;/font&gt;" style="text;html=1;align=center;verticalAlign=middle;resizable=0;points=[];autosize=1;" vertex="1" parent="1">
          <mxGeometry x="457" y="522" width="33" height="28" as="geometry" />
        </mxCell>
        <mxCell id="M0Go_DO-DKuvmfMo6PQz-336" value="" style="curved=1;endArrow=classic;html=1;strokeWidth=2;fillColor=#000000;strokeColor=#FFB278;" edge="1" parent="1">
          <mxGeometry width="50" height="50" relative="1" as="geometry">
            <mxPoint x="156" y="463" as="sourcePoint" />
            <mxPoint x="243" y="317" as="targetPoint" />
            <Array as="points">
              <mxPoint x="109" y="433" />
              <mxPoint x="119" y="375" />
              <mxPoint x="178" y="328" />
            </Array>
          </mxGeometry>
        </mxCell>
        <mxCell id="M0Go_DO-DKuvmfMo6PQz-337" value="&lt;font style=&quot;font-size: 40px&quot;&gt;=Conv(&amp;nbsp;&amp;nbsp;&amp;nbsp;&amp;nbsp;&amp;nbsp;&amp;nbsp;&amp;nbsp;&amp;nbsp;&amp;nbsp;&amp;nbsp;&amp;nbsp;&amp;nbsp; ,&amp;nbsp;&amp;nbsp;&amp;nbsp;&amp;nbsp;&amp;nbsp;&amp;nbsp;&amp;nbsp;&amp;nbsp;&amp;nbsp;&amp;nbsp;&amp;nbsp;&amp;nbsp;&amp;nbsp;&amp;nbsp;&amp;nbsp;&amp;nbsp;&amp;nbsp; )&lt;/font&gt;" style="text;html=1;align=center;verticalAlign=middle;resizable=0;points=[];autosize=1;" vertex="1" parent="1">
          <mxGeometry x="370" y="302.5" width="509" height="28" as="geometry" />
        </mxCell>
        <mxCell id="M0Go_DO-DKuvmfMo6PQz-341" value="&lt;font style=&quot;font-size: 30px&quot;&gt;unflatten&lt;/font&gt;" style="text;html=1;align=center;verticalAlign=middle;resizable=0;points=[];autosize=1;" vertex="1" parent="1">
          <mxGeometry x="140" y="383.75" width="125" height="24" as="geometry" />
        </mxCell>
        <mxCell id="M0Go_DO-DKuvmfMo6PQz-342" value="&lt;font style=&quot;font-size: 25px&quot;&gt;patch&lt;/font&gt;" style="text;html=1;strokeColor=none;fillColor=none;align=center;verticalAlign=middle;whiteSpace=wrap;rounded=0;" vertex="1" parent="1">
          <mxGeometry x="754" y="365" width="263" height="20" as="geometry" />
        </mxCell>
        <mxCell id="M0Go_DO-DKuvmfMo6PQz-343" value="&lt;font style=&quot;font-size: 30px&quot;&gt;flatten&lt;/font&gt;" style="text;html=1;align=center;verticalAlign=middle;resizable=0;points=[];autosize=1;" vertex="1" parent="1">
          <mxGeometry x="1015" y="472.25" width="92" height="24" as="geometry" />
        </mxCell>
        <mxCell id="M0Go_DO-DKuvmfMo6PQz-344" value="&lt;font style=&quot;font-size: 30px&quot;&gt;flatten&lt;/font&gt;" style="text;html=1;align=center;verticalAlign=middle;resizable=0;points=[];autosize=1;" vertex="1" parent="1">
          <mxGeometry x="491.5" y="400" width="92" height="24" as="geometry" />
        </mxCell>
        <mxCell id="M0Go_DO-DKuvmfMo6PQz-345" value="Title" style="text;strokeColor=none;fillColor=none;html=1;fontSize=24;fontStyle=1;verticalAlign=middle;align=center;rounded=0;" vertex="1" parent="1">
          <mxGeometry x="677" y="404" width="100" height="40" as="geometry" />
        </mxCell>
        <mxCell id="M0Go_DO-DKuvmfMo6PQz-346" value="&lt;font style=&quot;font-size: 40px&quot;&gt;$$im2col$$&lt;/font&gt;" style="text;html=1;align=center;verticalAlign=middle;resizable=0;points=[];autosize=1;" vertex="1" parent="1">
          <mxGeometry x="812" y="177" width="215" height="28" as="geometry" />
        </mxCell>
      </root>
    </mxGraphModel>
  </diagram>
</mxfile>
